<?xml version="1.0" standalone="no"?>
<!DOCTYPE svg PUBLIC "-//W3C//DTD SVG 20010904//EN"
 "http://www.w3.org/TR/2001/REC-SVG-20010904/DTD/svg10.dtd">
<svg version="1.0" xmlns="http://www.w3.org/2000/svg"
 width="512.000000pt" height="512.000000pt" viewBox="0 0 512.000000 512.000000"
 preserveAspectRatio="xMidYMid meet">
<g transform="translate(0.000000,512.000000) scale(0.100000,-0.100000)"
fill="#000000" stroke="none">
<path d="M2377 4463 c-4 -3 -7 -182 -7 -397 l0 -391 -307 307 -308 307 -140
-136 -140 -136 448 -443 447 -443 0 -190 0 -191 -192 0 -193 -1 -441 448 -441
448 -136 -140 -136 -140 307 -307 307 -308 -395 -2 -395 -3 -3 -187 -2 -188
397 0 398 0 -303 -303 c-166 -166 -302 -308 -302 -316 0 -13 247 -271 260
-271 4 0 207 200 451 445 l443 445 188 0 188 0 0 -194 0 -194 -447 -442 -446
-442 124 -124 c68 -69 132 -130 141 -135 15 -8 69 42 320 291 l303 301 3 -390
2 -391 190 0 190 0 0 397 0 398 310 -310 310 -309 117 114 c65 63 127 126 137
139 l20 25 -448 440 -447 441 1 193 0 192 191 0 190 0 447 -450 447 -449 134
140 135 140 -310 310 -309 309 398 0 397 0 0 190 0 190 -394 0 -394 0 304 306
304 306 -79 86 c-44 48 -104 111 -135 141 l-55 54 -441 -447 -442 -446 -194 0
-194 0 0 187 0 188 448 448 447 449 -134 129 c-74 71 -139 129 -145 129 -6 0
-147 -136 -313 -302 l-303 -303 0 398 0 397 -183 0 c-101 0 -187 -3 -190 -7z"/>
</g>
</svg>
